<mxfile host="app.diagrams.net" agent="Mozilla/5.0 (Windows NT 10.0; Win64; x64) AppleWebKit/537.36 (KHTML, like Gecko) Chrome/131.0.0.0 Safari/537.36 Edg/131.0.0.0" version="24.8.9">
  <diagram name="Página-1" id="nhZr6bRIpwJuBTeiWhPp">
    <mxGraphModel dx="840" dy="553" grid="0" gridSize="10" guides="1" tooltips="1" connect="1" arrows="1" fold="1" page="1" pageScale="1" pageWidth="827" pageHeight="1169" math="0" shadow="0">
      <root>
        <mxCell id="0" />
        <mxCell id="1" parent="0" />
        <mxCell id="6IWcJg0frwQlrSABsKyO-2" value="&lt;span style=&quot;white-space: pre;&quot;&gt;&#x9;&lt;/span&gt;&lt;span style=&quot;white-space: pre;&quot;&gt;&#x9;&lt;span style=&quot;white-space: pre;&quot;&gt;&#x9;&lt;/span&gt;&lt;span style=&quot;white-space: pre;&quot;&gt;&#x9;&lt;/span&gt;&lt;span style=&quot;white-space: pre;&quot;&gt;&#x9;&lt;/span&gt;&lt;/span&gt;&amp;lt;&amp;lt;dispositivo&amp;gt;&amp;gt;&lt;div&gt;&lt;span style=&quot;white-space: pre;&quot;&gt;&lt;span style=&quot;white-space: pre;&quot;&gt;&#x9;&lt;/span&gt;&lt;span style=&quot;white-space: pre;&quot;&gt;&#x9;&lt;/span&gt;&lt;span style=&quot;white-space: pre;&quot;&gt;&#x9;&lt;/span&gt;&#x9;&lt;/span&gt;&lt;span style=&quot;white-space: pre;&quot;&gt;&#x9;&lt;/span&gt;Servidor Sietem&lt;br&gt;&lt;/div&gt;" style="verticalAlign=top;align=left;spacingTop=8;spacingLeft=2;spacingRight=12;shape=cube;size=10;direction=south;fontStyle=4;html=1;whiteSpace=wrap;" parent="1" vertex="1">
          <mxGeometry x="320" y="210" width="368" height="417" as="geometry" />
        </mxCell>
        <mxCell id="6IWcJg0frwQlrSABsKyO-3" value="&lt;span style=&quot;white-space: pre;&quot;&gt;&#x9;&lt;span style=&quot;white-space: pre;&quot;&gt;&#x9;&lt;/span&gt;&lt;span style=&quot;white-space: pre;&quot;&gt;&#x9;&lt;/span&gt;&lt;/span&gt;&amp;lt;&amp;lt;entorno de ejecución&amp;gt;&amp;gt;&lt;div&gt;&lt;span style=&quot;white-space: pre;&quot;&gt;&#x9;&lt;/span&gt;&lt;span style=&quot;white-space: pre;&quot;&gt;&#x9;&lt;/span&gt;&lt;span style=&quot;white-space: pre;&quot;&gt;&#x9;&lt;span style=&quot;white-space: pre;&quot;&gt;&#x9;&lt;span style=&quot;white-space: pre;&quot;&gt;&#x9;&lt;/span&gt;L&lt;/span&gt;o&lt;/span&gt;calhost&lt;br&gt;&lt;/div&gt;" style="verticalAlign=top;align=left;spacingTop=8;spacingLeft=2;spacingRight=12;shape=cube;size=10;direction=south;fontStyle=4;html=1;whiteSpace=wrap;" parent="1" vertex="1">
          <mxGeometry x="350" y="270" width="309" height="312" as="geometry" />
        </mxCell>
        <mxCell id="SwJMHugqTw6nZuWKMUES-1" value="&lt;span style=&quot;white-space: pre;&quot;&gt;&#x9;&lt;/span&gt;&amp;lt;&amp;lt;entorno de ejecución&amp;gt;&amp;gt;&lt;div&gt;&lt;span style=&quot;white-space: pre;&quot;&gt;&#x9;&lt;/span&gt;&lt;span style=&quot;white-space: pre;&quot;&gt;&#x9;&lt;/span&gt;&lt;span style=&quot;white-space: pre;&quot;&gt;&#x9;&lt;/span&gt;Ngrok&lt;br&gt;&lt;/div&gt;" style="verticalAlign=top;align=left;spacingTop=8;spacingLeft=2;spacingRight=12;shape=cube;size=10;direction=south;fontStyle=4;html=1;whiteSpace=wrap;" vertex="1" parent="1">
          <mxGeometry x="398" y="327" width="219" height="238" as="geometry" />
        </mxCell>
        <mxCell id="SwJMHugqTw6nZuWKMUES-2" value="&lt;span style=&quot;white-space: pre;&quot;&gt;&#x9;&lt;/span&gt;&lt;span style=&quot;white-space: pre;&quot;&gt;&#x9;&lt;/span&gt;&amp;lt;&amp;lt;artefacto&amp;gt;&amp;gt;&lt;div&gt;&lt;span style=&quot;white-space: pre;&quot;&gt;&#x9;&lt;/span&gt;Calendario Inteligente&lt;br&gt;&lt;/div&gt;" style="verticalAlign=top;align=left;spacingTop=8;spacingLeft=2;spacingRight=12;shape=cube;size=10;direction=south;fontStyle=4;html=1;whiteSpace=wrap;" vertex="1" parent="1">
          <mxGeometry x="411.13" y="429" width="185.75" height="121" as="geometry" />
        </mxCell>
      </root>
    </mxGraphModel>
  </diagram>
</mxfile>
